SplineFontDB: 3.2
FontName: FelineseRegular
FullName: Felinese Regular
FamilyName: Felinese
Weight: Regular
Copyright: (c) 2021 Kawa.
Version: 001.000
ItalicAngle: 0
UnderlinePosition: -103
UnderlineWidth: 51
Ascent: 768
Descent: 256
InvalidEm: 0
sfntRevision: 0x00010000
LayerCount: 2
Layer: 0 1 "Back" 1
Layer: 1 1 "Fore" 0
XUID: [1021 539 157326795 2249]
FSType: 0
OS2Version: 3
OS2_WeightWidthSlopeOnly: 0
OS2_UseTypoMetrics: 1
CreationTime: 1421261332
ModificationTime: 1631387414
PfmFamily: 33
TTFWeight: 400
TTFWidth: 5
LineGap: 92
VLineGap: 0
Panose: 2 0 6 3 0 0 0 0 0 0
OS2TypoAscent: 768
OS2TypoAOffset: 0
OS2TypoDescent: -256
OS2TypoDOffset: 0
OS2TypoLinegap: 92
OS2WinAscent: 768
OS2WinAOffset: 0
OS2WinDescent: 256
OS2WinDOffset: 0
HheadAscent: 704
HheadAOffset: 0
HheadDescent: 0
HheadDOffset: 0
OS2SubXSize: 665
OS2SubYSize: 716
OS2SubXOff: 0
OS2SubYOff: 143
OS2SupXSize: 665
OS2SupYSize: 716
OS2SupXOff: 0
OS2SupYOff: 491
OS2StrikeYSize: 51
OS2StrikeYPos: 265
OS2Vendor: '2ttf'
OS2CodePages: 00000001.00000000
OS2UnicodeRanges: 00000003.00000000.00000000.00000000
Lookup: 4 0 1 "'liga' Standard Ligatures in Latin lookup 0" { "'liga' Standard Ligatures in Latin lookup 0-1"  } ['liga' ('DFLT' <'dflt' > 'latn' <'dflt' > ) ]
Lookup: 258 0 0 "'kern' Horizontal Kerning in Latin lookup 1" { "Numerals" [153,15,0] "Connect low" [153,15,0] "Connect high" [153,15,0] "Empty low" [153,15,0] "Empty high" [153,15,0] "Empty middle" [153,15,0] "Empty middle 2" [153,15,0] "Impromptu" [153,15,0] } ['kern' ('DFLT' <'dflt' > 'latn' <'dflt' > ) ]
MarkAttachClasses: 1
DEI: 91125
KernClass2: 1+ 2 "Empty middle 2"
 39 k u v w uniE130 uniE13D uniE13E uniE13F
 40 o s t ae uniE121 uniE136 uniE13A uniE13B
 0 {} -64 {}
KernClass2: 1+ 2 "Empty middle"
 39 a b d e uniE120 uniE124 uniE126 uniE127
 39 k u v w uniE130 uniE13D uniE13E uniE13F
 0 {} -96 {}
KernClass2: 1+ 2 "Empty high"
 19 b s uniE124 uniE13A
 73 C d h o s t thorn uniE125 uniE126 uniE12B uniE136 uniE13A uniE13B uniE13C
 0 {} -119 {}

StartChar: exclam
Encoding: 33 33 4
Width: 314
Flags: W
LayerCount: 2
Fore
SplineSet
68 160 m 128,-1,1
 68 108 68 108 94 72 c 128,-1,2
 120 36 120 36 158 36 c 128,-1,3
 196 36 196 36 222 72 c 128,-1,4
 248 108 248 108 248 160 c 128,-1,5
 248 212 248 212 222 248 c 128,-1,6
 196 284 196 284 158 284 c 128,-1,7
 120 284 120 284 94 248 c 128,-1,0
 68 212 68 212 68 160 c 128,-1,1
32 159 m 128,-1,9
 32 225 32 225 68.5 272 c 128,-1,10
 105 319 105 319 157 319 c 128,-1,11
 209 319 209 319 245.5 272 c 128,-1,12
 282 225 282 225 282 159 c 128,-1,13
 282 93 282 93 245.5 46 c 128,-1,14
 209 -1 209 -1 157 -1 c 128,-1,15
 105 -1 105 -1 68.5 46 c 128,-1,8
 32 93 32 93 32 159 c 128,-1,9
EndSplineSet
Validated: 1
EndChar

StartChar: comma
Encoding: 44 44 5
Width: 128
Flags: W
LayerCount: 2
Fore
SplineSet
32 128 m 1,0,-1
 96 128 l 1,1,-1
 96 0 l 1,2,-1
 32 0 l 1,3,-1
 32 128 l 1,0,-1
EndSplineSet
Validated: 1
EndChar

StartChar: period
Encoding: 46 46 6
Width: 128
Flags: W
LayerCount: 2
Fore
SplineSet
32 0 m 5,0,-1
 32 64 l 5,1,-1
 96 64 l 5,2,-1
 96 0 l 5,3,-1
 32 0 l 5,0,-1
EndSplineSet
Validated: 1
EndChar

StartChar: zero
Encoding: 48 48 7
Width: 412
Flags: W
LayerCount: 2
Fore
SplineSet
335 221 m 0,0,1
 272 155 272 155 212 154 c 1,2,-1
 210 154 l 2,3,4
 125 154 125 154 61 221 c 0,5,6
 0 285 0 285 0 389 c 0,7,8
 0 479 0 479 63 559 c 0,9,10
 96 601 96 601 129 601 c 0,11,12
 134 601 134 601 140 600 c 0,13,14
 143 600 143 600 155 598 c 1,15,16
 113 568 113 568 55 400 c 0,17,18
 54 397 54 397 54 392 c 2,19,-1
 54 391 l 1,20,21
 68 291 68 291 101 257 c 0,22,23
 149 208 149 208 211 208 c 0,24,25
 213 208 213 208 214 208 c 0,26,27
 250 208 250 208 300 257 c 0,28,29
 348 304 348 304 348 388 c 0,30,31
 348 426 348 426 318 477 c 0,32,33
 292 520 292 520 263 565 c 1,34,35
 313 560 313 560 343 527 c 0,36,37
 396 469 396 469 397 389 c 2,38,-1
 397 377 l 2,39,40
 397 286 397 286 335 221 c 0,0,1
EndSplineSet
Validated: 1
EndChar

StartChar: one
Encoding: 49 49 8
Width: 394
Flags: W
LayerCount: 2
Fore
SplineSet
394 334 m 1,0,-1
 0 334 l 1,1,-1
 0 404 l 1,2,-1
 235 405 l 1,3,-1
 179 506 l 1,4,-1
 260 506 l 1,5,-1
 324 404 l 1,6,-1
 394 404 l 1,7,-1
 394 334 l 1,0,-1
EndSplineSet
Validated: 1
EndChar

StartChar: two
Encoding: 50 50 9
Width: 394
Flags: W
LayerCount: 2
Fore
SplineSet
131 488 m 1,0,-1
 28 488 l 1,1,-1
 28 534 l 1,2,-1
 343 534 l 1,3,-1
 343 488 l 1,4,-1
 196 487 l 1,5,-1
 150 403 l 1,6,-1
 394 404 l 1,7,-1
 394 334 l 1,8,-1
 0 334 l 1,9,-1
 0 404 l 1,10,-1
 78 404 l 1,11,-1
 131 488 l 1,0,-1
EndSplineSet
Validated: 1
EndChar

StartChar: three
Encoding: 51 51 10
Width: 394
Flags: W
LayerCount: 2
Fore
SplineSet
394 404 m 1,0,-1
 394 334 l 1,1,-1
 0 334 l 1,2,-1
 0 404 l 1,3,-1
 174 404 l 1,4,-1
 66 522 l 1,5,-1
 66 563 l 1,6,-1
 107 563 l 1,7,-1
 231 441 l 1,8,-1
 309 528 l 1,9,-1
 347 528 l 1,10,-1
 347 492 l 1,11,-1
 258 404 l 1,12,-1
 394 404 l 1,0,-1
EndSplineSet
Validated: 1
EndChar

StartChar: four
Encoding: 52 52 11
Width: 394
Flags: W
LayerCount: 2
Fore
SplineSet
0 332 m 1,0,-1
 0 599 l 1,1,-1
 67 660 l 1,2,-1
 67 558 l 1,3,-1
 321 558 l 1,4,5
 373 545 373 545 393 493 c 1,6,-1
 393 332 l 1,7,-1
 329 332 l 1,8,-1
 329 504 l 1,9,-1
 63 504 l 1,10,-1
 63 404 l 1,11,-1
 239 404 l 1,12,-1
 239 332 l 1,13,-1
 0 332 l 1,0,-1
EndSplineSet
Validated: 1
EndChar

StartChar: question
Encoding: 63 63 12
Width: 192
Flags: W
LayerCount: 2
Fore
SplineSet
32 704 m 1,0,-1
 160 704 l 1,1,-1
 160 640 l 1,2,-1
 32 640 l 1,3,-1
 32 704 l 1,0,-1
32 529 m 1,4,-1
 160 529 l 1,5,-1
 160 0 l 1,6,-1
 96 0 l 1,7,-1
 96 464 l 1,8,-1
 32 464 l 1,9,-1
 32 529 l 1,4,-1
EndSplineSet
Validated: 1
EndChar

StartChar: C
Encoding: 67 67 13
Width: 479
Flags: W
LayerCount: 2
Fore
SplineSet
352 236 m 2,0,1
 350 466 350 466 32 466 c 2,2,-1
 32 531 l 1,3,4
 414 531 414 531 416 260 c 2,5,-1
 417 0 l 1,6,-1
 353 0 l 1,7,-1
 352 236 l 2,0,1
32 640 m 1,8,-1
 32 704 l 1,9,-1
 416 704 l 1,10,-1
 416 640 l 1,11,-1
 32 640 l 1,8,-1
EndSplineSet
Validated: 1
EndChar

StartChar: F
Encoding: 70 70 14
Width: 576
Flags: W
LayerCount: 2
Fore
SplineSet
32 222 m 1,0,-1
 32 288 l 1,1,-1
 544 288 l 1,2,-1
 544 222 l 1,3,-1
 32 222 l 1,0,-1
160 414 m 1,4,-1
 160 480 l 1,5,-1
 416 480 l 1,6,-1
 416 414 l 1,7,-1
 160 414 l 1,4,-1
EndSplineSet
Validated: 1
EndChar

StartChar: G
Encoding: 71 71 15
Width: 256
Flags: W
LayerCount: 2
Fore
SplineSet
160 0 m 1,0,-1
 160 285 l 1,1,-1
 224 285 l 1,2,-1
 224 0 l 1,3,-1
 160 0 l 1,0,-1
32 0 m 1,4,-1
 32 704 l 1,5,-1
 96 704 l 1,6,-1
 96 437 l 1,7,-1
 224 437 l 1,8,-1
 224 371 l 1,9,-1
 96 371 l 1,10,-1
 96 0 l 1,11,-1
 32 0 l 1,4,-1
160 510 m 1,12,-1
 160 704 l 1,13,-1
 224 704 l 1,14,-1
 224 510 l 1,15,-1
 160 510 l 1,12,-1
EndSplineSet
Validated: 1
EndChar

StartChar: H
Encoding: 72 72 16
Width: 320
Flags: W
HStem: 214 97<224 288> 463 66<32 96> 608 96<224 288> 640 64<32 160>
VStem: 32 128<463 529 640 704> 96 64<0 463> 224 64<214 311 608 704>
LayerCount: 2
Fore
SplineSet
128 0 m 1,0,-1
 96 0 l 1,1,-1
 96 463 l 1,2,-1
 32 463 l 1,3,-1
 32 529 l 1,4,-1
 160 529 l 1,5,-1
 160 0 l 1,6,-1
 128 0 l 1,0,-1
224 214 m 1,7,-1
 224 311 l 1,8,-1
 288 311 l 1,9,-1
 288 214 l 1,10,-1
 224 214 l 1,7,-1
224 608 m 1,11,-1
 224 704 l 1,12,-1
 288 704 l 1,13,-1
 288 608 l 1,14,-1
 224 608 l 1,11,-1
32 640 m 1,15,-1
 32 704 l 1,16,-1
 160 704 l 1,17,-1
 160 640 l 1,18,-1
 32 640 l 1,15,-1
EndSplineSet
Validated: 1
EndChar

StartChar: K
Encoding: 75 75 17
Width: 384
Flags: W
LayerCount: 2
Fore
SplineSet
288 0 m 1,0,-1
 288 448 l 1,1,-1
 352 448 l 1,2,-1
 352 0 l 1,3,-1
 288 0 l 1,0,-1
160 0 m 1,4,-1
 160 704 l 1,5,-1
 224 704 l 1,6,-1
 224 0 l 1,7,-1
 160 0 l 1,4,-1
32 416 m 1,8,-1
 32 512 l 1,9,-1
 96 512 l 1,10,-1
 96 416 l 1,11,-1
 32 416 l 1,8,-1
288 608 m 1,12,-1
 288 704 l 1,13,-1
 352 704 l 1,14,-1
 352 608 l 1,15,-1
 288 608 l 1,12,-1
EndSplineSet
Validated: 1
EndChar

StartChar: M
Encoding: 77 77 18
Width: 384
Flags: W
LayerCount: 2
Fore
SplineSet
288 0 m 1,0,-1
 288 96 l 1,1,-1
 352 96 l 1,2,-1
 352 0 l 1,3,-1
 288 0 l 1,0,-1
32 0 m 1,4,-1
 32 64 l 1,5,-1
 160 64 l 1,6,-1
 160 704 l 1,7,-1
 224 704 l 1,8,-1
 224 0 l 1,9,-1
 32 0 l 1,4,-1
32 301 m 1,10,-1
 32 704 l 1,11,-1
 96 704 l 1,12,-1
 96 301 l 1,13,-1
 32 301 l 1,10,-1
288 608 m 1,14,-1
 288 704 l 1,15,-1
 352 704 l 1,16,-1
 352 608 l 1,17,-1
 288 608 l 1,14,-1
EndSplineSet
Validated: 1
EndChar

StartChar: R
Encoding: 82 82 19
Width: 320
Flags: W
LayerCount: 2
Fore
SplineSet
160 0 m 1,0,-1
 160 529 l 1,1,-1
 288 529 l 1,2,-1
 288 463 l 1,3,-1
 224 463 l 1,4,-1
 224 0 l 1,5,-1
 160 0 l 1,0,-1
32 214 m 1,6,-1
 32 311 l 1,7,-1
 96 311 l 1,8,-1
 96 214 l 1,9,-1
 32 214 l 1,6,-1
32 608 m 1,10,-1
 32 704 l 1,11,-1
 96 704 l 1,12,-1
 96 608 l 1,13,-1
 32 608 l 1,10,-1
160 640 m 1,14,-1
 160 704 l 1,15,-1
 288 704 l 1,16,-1
 288 640 l 1,17,-1
 160 640 l 1,14,-1
EndSplineSet
Validated: 1
EndChar

StartChar: backslash
Encoding: 92 92 20
Width: 390
Flags: W
LayerCount: 2
Fore
SplineSet
0 351 m 1,0,-1
 0 416 l 1,1,-1
 159 416 l 1,2,-1
 131 608 l 1,3,-1
 196 608 l 1,4,-1
 223 416 l 1,5,-1
 391 416 l 1,6,-1
 391 351 l 1,7,-1
 232 351 l 1,8,-1
 260 159 l 1,9,-1
 195 159 l 1,10,-1
 168 351 l 1,11,-1
 0 351 l 1,0,-1
EndSplineSet
Validated: 1
EndChar

StartChar: a
Encoding: 97 97 21
Width: 448
Flags: W
LayerCount: 2
Fore
SplineSet
30 0 m 5,0,-1
 30 64 l 5,1,-1
 158 64 l 5,2,-1
 158 556 l 6,3,4
 158 718 158 718 285 718 c 4,5,6
 414 718 414 718 414 599 c 6,7,-1
 414 543 l 5,8,-1
 350 543 l 5,9,-1
 350 573 l 6,10,11
 350 663 350 663 287 663 c 4,12,13
 286 663 286 663 285 663 c 132,-1,14
 284 663 284 663 283 663 c 132,-1,15
 282 663 282 663 281 663 c 132,-1,16
 280 663 280 663 279 663 c 132,-1,17
 278 663 278 663 277 663 c 4,18,19
 276 663 l 4,20,21
 222 663 222 663 222 584 c 6,22,-1
 222 0 l 5,23,-1
 30 0 l 5,0,-1
EndSplineSet
Validated: 1
EndChar

StartChar: b
Encoding: 98 98 22
Width: 448
Flags: W
LayerCount: 2
Fore
SplineSet
32 0 m 1,0,-1
 32 64 l 1,1,-1
 286 64 l 5,2,3
 32 170 32 170 32 491 c 2,4,-1
 32 704 l 1,5,-1
 96 704 l 1,6,-1
 96 491 l 2,7,8
 96 215 96 215 416 64 c 1,9,-1
 416 0 l 1,10,-1
 32 0 l 1,0,-1
EndSplineSet
Validated: 1
EndChar

StartChar: d
Encoding: 100 100 23
Width: 460
Flags: W
LayerCount: 2
Fore
SplineSet
288 0 m 1,0,-1
 96 497 l 1,1,-1
 178 497 l 1,2,-1
 370 0 l 1,3,-1
 288 0 l 1,0,-1
32 640 m 1,4,-1
 32 704 l 1,5,-1
 434 704 l 1,6,-1
 434 640 l 1,7,-1
 32 640 l 1,4,-1
EndSplineSet
Validated: 1
EndChar

StartChar: e
Encoding: 101 101 24
Width: 320
Flags: W
LayerCount: 2
Fore
SplineSet
32 0 m 1,0,-1
 32 704 l 1,1,-1
 96 704 l 1,2,-1
 96 64 l 1,3,-1
 288 64 l 1,4,-1
 288 0 l 1,5,-1
 32 0 l 1,0,-1
224 608 m 1,6,-1
 224 704 l 1,7,-1
 288 704 l 1,8,-1
 288 608 l 1,9,-1
 224 608 l 1,6,-1
EndSplineSet
Validated: 1
EndChar

StartChar: f
Encoding: 102 102 25
Width: 512
Flags: W
HStem: 222 66<32 480> 414 66<32 480>
LayerCount: 2
Fore
SplineSet
32 222 m 1,0,-1
 32 288 l 1,1,-1
 480 288 l 1,2,-1
 480 222 l 1,3,-1
 32 222 l 1,0,-1
32 414 m 1,4,-1
 32 480 l 1,5,-1
 480 480 l 1,6,-1
 480 414 l 1,7,-1
 32 414 l 1,4,-1
EndSplineSet
Validated: 1
EndChar

StartChar: h
Encoding: 104 104 26
Width: 512
Flags: W
LayerCount: 2
Fore
SplineSet
224 0 m 1,0,-1
 224 463 l 1,1,-1
 32 463 l 1,2,-1
 32 529 l 1,3,-1
 480 529 l 1,4,-1
 480 463 l 1,5,-1
 288 463 l 1,6,-1
 288 0 l 1,7,-1
 224 0 l 1,0,-1
32 640 m 1,8,-1
 32 704 l 1,9,-1
 480 704 l 1,10,-1
 480 640 l 1,11,-1
 32 640 l 1,8,-1
EndSplineSet
Validated: 1
EndChar

StartChar: i
Encoding: 105 105 27
Width: 128
Flags: W
LayerCount: 2
Fore
SplineSet
32 0 m 1,0,-1
 32 320 l 1,1,-1
 96 320 l 1,2,-1
 96 0 l 1,3,-1
 32 0 l 1,0,-1
32 384 m 1,4,-1
 32 704 l 1,5,-1
 96 704 l 1,6,-1
 96 384 l 1,7,-1
 32 384 l 1,4,-1
EndSplineSet
Validated: 1
EndChar

StartChar: k
Encoding: 107 107 28
Width: 384
Flags: W
LayerCount: 2
Fore
SplineSet
160 0 m 1,0,-1
 160 704 l 1,1,-1
 224 704 l 1,2,-1
 224 0 l 1,3,-1
 160 0 l 1,0,-1
288 350 m 1,4,-1
 288 416 l 1,5,-1
 352 416 l 1,6,-1
 352 350 l 1,7,-1
 288 350 l 1,4,-1
32 350 m 1,8,-1
 32 416 l 1,9,-1
 96 416 l 1,10,-1
 96 350 l 1,11,-1
 32 350 l 1,8,-1
EndSplineSet
Validated: 1
EndChar

StartChar: l
Encoding: 108 108 29
Width: 256
Flags: W
HStem: 174 98<160 224> 430 98<160 224> 684 20G<32 96> 684 20G<32 96>
VStem: 32 64<0 704> 160 64<174 272 430 528>
LayerCount: 2
Fore
SplineSet
32 0 m 1,0,-1
 32 704 l 1,1,-1
 96 704 l 1,2,-1
 96 0 l 1,3,-1
 32 0 l 1,0,-1
160 174 m 1,4,-1
 160 272 l 1,5,-1
 224 272 l 1,6,-1
 224 174 l 1,7,-1
 160 174 l 1,4,-1
160 430 m 1,8,-1
 160 528 l 1,9,-1
 224 528 l 1,10,-1
 224 430 l 1,11,-1
 160 430 l 1,8,-1
EndSplineSet
Validated: 1
EndChar

StartChar: m
Encoding: 109 109 30
Width: 320
Flags: W
HStem: 0 64<32 224> 608 96<32 96>
VStem: 32 64<608 704> 224 64<64 704>
LayerCount: 2
Fore
SplineSet
32 0 m 1,0,-1
 32 64 l 1,1,-1
 224 64 l 1,2,-1
 224 704 l 1,3,-1
 288 704 l 1,4,-1
 288 0 l 1,5,-1
 32 0 l 1,0,-1
32 608 m 1,6,-1
 32 704 l 1,7,-1
 96 704 l 1,8,-1
 96 608 l 1,9,-1
 32 608 l 1,6,-1
EndSplineSet
Validated: 1
EndChar

StartChar: n
Encoding: 110 110 31
Width: 320
Flags: W
LayerCount: 2
Fore
SplineSet
32 0 m 1,0,-1
 32 64 l 1,1,-1
 98 64 l 6,2,3
 224 64 224 64 224 348 c 2,4,-1
 224 704 l 1,5,-1
 288 704 l 1,6,-1
 288 384 l 2,7,8
 288 0 288 0 108 0 c 6,9,-1
 32 0 l 1,0,-1
32 349 m 1,10,-1
 32 704 l 1,11,-1
 96 704 l 1,12,-1
 96 349 l 1,13,-1
 32 349 l 1,10,-1
EndSplineSet
Validated: 1
EndChar

StartChar: o
Encoding: 111 111 32
Width: 448
Flags: W
LayerCount: 2
Fore
SplineSet
96 0 m 1,0,-1
 96 64 l 1,1,2
 364 64 364 64 364 357 c 0,3,4
 364 358 364 358 364 360 c 0,5,6
 364 640 364 640 256 640 c 2,7,-1
 32 640 l 1,8,-1
 32 704 l 1,9,-1
 251 704 l 2,10,11
 428 704 428 704 428 353 c 0,12,13
 428 352 428 352 428 350 c 0,14,15
 428 0 428 0 121 0 c 2,16,-1
 96 0 l 1,0,-1
EndSplineSet
Validated: 1
EndChar

StartChar: p
Encoding: 112 112 33
Width: 256
Flags: W
LayerCount: 2
Fore
SplineSet
160 0 m 1,0,-1
 160 96 l 1,1,-1
 224 96 l 1,2,-1
 224 0 l 1,3,-1
 160 0 l 1,0,-1
32 0 m 1,4,-1
 32 506 l 1,5,-1
 96 506 l 1,6,-1
 96 0 l 1,7,-1
 32 0 l 1,4,-1
160 198 m 1,8,-1
 160 704 l 1,9,-1
 224 704 l 1,10,-1
 224 198 l 1,11,-1
 160 198 l 1,8,-1
32 608 m 1,12,-1
 32 704 l 1,13,-1
 96 704 l 1,14,-1
 96 608 l 1,15,-1
 32 608 l 1,12,-1
EndSplineSet
Validated: 1
EndChar

StartChar: r
Encoding: 114 114 34
Width: 256
Flags: W
LayerCount: 2
Fore
SplineSet
160 0 m 1,0,-1
 160 96 l 1,1,-1
 224 96 l 1,2,-1
 224 0 l 1,3,-1
 160 0 l 1,0,-1
32 0 m 1,4,-1
 32 96 l 1,5,-1
 96 96 l 1,6,-1
 96 0 l 1,7,-1
 32 0 l 1,4,-1
160 608 m 1,8,-1
 160 704 l 1,9,-1
 224 704 l 1,10,-1
 224 608 l 1,11,-1
 160 608 l 1,8,-1
32 608 m 1,12,-1
 32 704 l 1,13,-1
 96 704 l 1,14,-1
 96 608 l 1,15,-1
 32 608 l 1,12,-1
EndSplineSet
Validated: 1
EndChar

StartChar: s
Encoding: 115 115 35
Width: 276
Flags: W
LayerCount: 2
Fore
SplineSet
160 0 m 1,0,-1
 32 704 l 1,1,-1
 108 704 l 1,2,-1
 236 0 l 1,3,-1
 160 0 l 1,0,-1
EndSplineSet
Validated: 1
EndChar

StartChar: t
Encoding: 116 116 36
Width: 384
Flags: W
HStem: 0 96<288 352> 640 64<32 288>
VStem: 288 64<0 96 187 640>
LayerCount: 2
Fore
SplineSet
288 0 m 1,0,-1
 288 96 l 1,1,-1
 352 96 l 1,2,-1
 352 0 l 1,3,-1
 288 0 l 1,0,-1
288 187 m 1,4,-1
 288 640 l 1,5,-1
 32 640 l 1,6,-1
 32 704 l 1,7,-1
 352 704 l 1,8,-1
 352 187 l 1,9,-1
 288 187 l 1,4,-1
EndSplineSet
Validated: 1
EndChar

StartChar: u
Encoding: 117 117 37
Width: 320
Flags: W
LayerCount: 2
Fore
SplineSet
32 222 m 1,0,-1
 32 288 l 1,1,-1
 288 288 l 1,2,-1
 288 222 l 1,3,-1
 32 222 l 1,0,-1
224 430 m 1,4,-1
 224 528 l 1,5,-1
 288 528 l 1,6,-1
 288 430 l 1,7,-1
 224 430 l 1,4,-1
32 430 m 1,8,-1
 32 528 l 1,9,-1
 96 528 l 1,10,-1
 96 430 l 1,11,-1
 32 430 l 1,8,-1
EndSplineSet
Validated: 1
EndChar

StartChar: v
Encoding: 118 118 38
Width: 384
Flags: W
LayerCount: 2
Fore
SplineSet
32 222 m 1,0,-1
 32 288 l 1,1,-1
 352 288 l 1,2,-1
 352 222 l 1,3,-1
 32 222 l 1,0,-1
32 414 m 1,4,-1
 32 480 l 1,5,-1
 160 480 l 1,6,-1
 160 608 l 1,7,-1
 224 608 l 1,8,-1
 224 480 l 1,9,-1
 352 480 l 1,10,-1
 352 414 l 1,11,-1
 32 414 l 1,4,-1
EndSplineSet
Validated: 1
EndChar

StartChar: w
Encoding: 119 119 39
Width: 416
Flags: W
LayerCount: 2
Fore
SplineSet
294 238 m 1,0,-1
 224 336 l 1,1,-1
 320 336 l 1,2,-1
 384 238 l 1,3,-1
 294 238 l 1,0,-1
32 238 m 1,4,-1
 96 336 l 1,5,-1
 192 336 l 1,6,-1
 122 238 l 1,7,-1
 32 238 l 1,4,-1
160 478 m 1,8,-1
 160 544 l 1,9,-1
 256 544 l 1,10,-1
 256 478 l 1,11,-1
 160 478 l 1,8,-1
EndSplineSet
Validated: 1
EndChar

StartChar: section
Encoding: 167 167 41
Width: 576
Flags: W
LayerCount: 2
Fore
SplineSet
150 539.727626459 m 1,0,-1
 150 447.301435407 l 1,1,-1
 32 484 l 1,2,-1
 32 576 l 1,3,-1
 150 539.727626459 l 1,0,-1
150 165.96124031 m 1,4,-1
 32 128 l 1,5,-1
 34 226 l 1,6,-1
 150 261.692307692 l 1,7,-1
 150 165.96124031 l 1,4,-1
222 517.595330739 m 1,8,-1
 338 481.937743191 l 1,9,-1
 338 388.832535885 l 1,10,-1
 222 424.909090909 l 1,11,-1
 222 517.595330739 l 1,8,-1
222 189.124031008 m 1,12,-1
 222 283.846153846 l 1,13,-1
 338 319.538461538 l 1,14,-1
 338 226.441860465 l 1,15,-1
 222 189.124031008 l 1,12,-1
416 457.961089494 m 1,16,-1
 546 418 l 1,17,-1
 548 294 l 1,18,-1
 416 251.534883721 l 1,19,-1
 416 343.538461538 l 1,20,-1
 450 354 l 1,21,-1
 416 364.574162679 l 1,22,-1
 416 457.961089494 l 1,16,-1
EndSplineSet
Validated: 1
EndChar

StartChar: guillemotleft
Encoding: 171 171 42
Width: 256
Flags: W
LayerCount: 2
Fore
SplineSet
32 704 m 5,0,-1
 224 704 l 5,1,-1
 224 672 l 5,2,-1
 96 672 l 5,3,-1
 96 160 l 5,4,-1
 32 160 l 5,5,-1
 32 704 l 5,0,-1
EndSplineSet
Validated: 1
EndChar

StartChar: guillemotright
Encoding: 187 187 43
Width: 256
Flags: W
LayerCount: 2
Fore
SplineSet
224 0 m 5,0,-1
 32 0 l 5,1,-1
 32 32 l 5,2,-1
 160 32 l 5,3,-1
 160 544 l 5,4,-1
 224 544 l 5,5,-1
 224 0 l 5,0,-1
EndSplineSet
Validated: 1
EndChar

StartChar: Aacute
Encoding: 193 193 44
Width: 389
Flags: W
LayerCount: 2
Fore
SplineSet
-26.5146484375 0 m 1,0,-1
 -26.5146484375 64 l 1,1,-1
 101.485351562 64 l 1,2,-1
 101.485351562 558 l 1,3,-1
 165.485351562 558 l 1,4,-1
 165.485351562 0 l 1,5,-1
 -26.5146484375 0 l 1,0,-1
293.485351562 393 m 1,6,-1
 293.485351562 558 l 2,7,8
 293.485351562 640 293.485351562 640 245.485351562 640 c 2,9,-1
 101.485351562 640 l 1,10,-1
 101.485351562 704 l 1,11,-1
 251.485351562 704 l 2,12,13
 357.485351562 704 357.485351562 704 357.485351562 551 c 2,14,-1
 357.485351562 393 l 1,15,-1
 293.485351562 393 l 1,6,-1
EndSplineSet
Validated: 1
EndChar

StartChar: Eacute
Encoding: 201 201 45
Width: 256
Flags: W
LayerCount: 2
Fore
SplineSet
32 0 m 1,0,-1
 32 517 l 1,1,-1
 96 517 l 1,2,-1
 96 64 l 1,3,-1
 224 64 l 1,4,-1
 224 0 l 1,5,-1
 32 0 l 1,0,-1
160 427 m 1,6,-1
 160 704 l 1,7,-1
 224 704 l 1,8,-1
 224 427 l 1,9,-1
 160 427 l 1,6,-1
32 608 m 1,10,-1
 32 704 l 1,11,-1
 96 704 l 1,12,-1
 96 608 l 1,13,-1
 32 608 l 1,10,-1
EndSplineSet
Validated: 1
EndChar

StartChar: agrave
Encoding: 224 224 46
Width: 448
Flags: W
LayerCount: 2
Fore
SplineSet
32 0 m 1,0,-1
 32 64 l 1,1,-1
 160 64 l 1,2,-1
 160 322 l 2,3,4
 160 507 160 507 290 507 c 2,5,-1
 416 507 l 1,6,-1
 416 475 l 1,7,-1
 416 442 l 1,8,-1
 288 442 l 2,9,10
 226 442 226 442 224 368 c 2,11,-1
 224 0 l 1,12,-1
 32 0 l 1,0,-1
32 640 m 1,13,-1
 32 704 l 1,14,-1
 416 704 l 1,15,-1
 416 640 l 1,16,-1
 32 640 l 1,13,-1
EndSplineSet
Validated: 1
EndChar

StartChar: acircumflex
Encoding: 226 226 47
Width: 448
Flags: W
LayerCount: 2
Fore
SplineSet
32 0 m 1,0,-1
 32 64 l 1,1,-1
 320 64 l 1,2,-1
 320 0 l 1,3,-1
 32 0 l 1,0,-1
160 147 m 1,4,-1
 160 500 l 2,5,6
 160 658 160 658 285 658 c 0,7,8
 288 658 288 658 290 658 c 1,9,10
 416 658 416 658 416 530 c 2,11,-1
 416 477 l 1,12,-1
 352 477 l 1,13,-1
 352 516 l 2,14,15
 352 601 352 601 293 601 c 0,16,17
 292 601 292 601 290 601 c 0,18,19
 224 601 224 601 224 516 c 2,20,-1
 224 147 l 1,21,-1
 160 147 l 1,4,-1
EndSplineSet
Validated: 1
EndChar

StartChar: ae
Encoding: 230 230 48
Width: 416
Flags: W
LayerCount: 2
Fore
SplineSet
288 0 m 1,0,-1
 288 320 l 5,1,-1
 352 320 l 5,2,-1
 352 64 l 1,3,-1
 384 64 l 1,4,-1
 384 0 l 1,5,-1
 288 0 l 1,0,-1
32 0 m 1,6,-1
 32 64 l 1,7,-1
 160 64 l 1,8,-1
 160 514 l 6,9,10
 160 704 160 704 269 704 c 6,11,-1
 352 704 l 5,12,-1
 352 448 l 5,13,-1
 288 448 l 5,14,-1
 288 638 l 5,15,16
 224 638 224 638 224 573 c 6,17,-1
 224 0 l 1,18,-1
 32 0 l 1,6,-1
EndSplineSet
Validated: 1
LCarets2: 1 0
EndChar

StartChar: thorn
Encoding: 254 254 49
Width: 448
Flags: W
LayerCount: 2
Fore
SplineSet
160 0 m 1,0,-1
 160 96 l 1,1,-1
 224 96 l 1,2,-1
 224 0 l 1,3,-1
 160 0 l 1,0,-1
160 206 m 1,4,-1
 160 640 l 1,5,-1
 32 640 l 1,6,-1
 32 704 l 1,7,-1
 224 704 l 1,8,-1
 224 206 l 1,9,-1
 160 206 l 1,4,-1
288 490 m 1,10,-1
 416 490 l 1,11,-1
 416 425 l 1,12,-1
 352 425 l 1,13,-1
 352 0 l 1,14,-1
 320 0 l 1,15,-1
 288 0 l 1,16,-1
 288 490 l 1,10,-1
288 704 m 1,17,-1
 416 704 l 1,18,-1
 416 640 l 1,19,-1
 288 640 l 1,20,-1
 288 704 l 1,17,-1
EndSplineSet
Validated: 1
EndChar

StartChar: uni25B6
Encoding: 9654 9654 50
Width: 576
Flags: W
LayerCount: 2
Fore
SplineSet
544 352 m 5,0,-1
 32 128 l 5,1,-1
 32 576 l 5,2,-1
 544 352 l 5,0,-1
EndSplineSet
Validated: 1
EndChar

StartChar: uni25C0
Encoding: 9664 9664 51
Width: 576
Flags: W
LayerCount: 2
Fore
SplineSet
32 352 m 5,0,-1
 544 576 l 5,1,-1
 544 128 l 5,2,-1
 32 352 l 5,0,-1
EndSplineSet
Validated: 1
EndChar

StartChar: uni25B7
Encoding: 9655 9655 52
Width: 576
Flags: W
LayerCount: 2
Fore
SplineSet
480 350 m 25,0,-1
 64 528 l 25,1,-1
 64 178 l 25,2,-1
 480 350 l 25,0,-1
544 352 m 1,3,-1
 32 128 l 1,4,-1
 32 576 l 1,5,-1
 544 352 l 1,3,-1
EndSplineSet
Validated: 1
EndChar

StartChar: uni25C1
Encoding: 9665 9665 53
Width: 576
Flags: W
LayerCount: 2
Fore
SplineSet
98 352 m 29,0,-1
 514 178 l 25,1,-1
 514 528 l 25,2,-1
 98 352 l 29,0,-1
32 352 m 1,3,-1
 544 576 l 1,4,-1
 544 128 l 1,5,-1
 32 352 l 1,3,-1
EndSplineSet
Validated: 1
EndChar

StartChar: triagup
Encoding: 9650 9650 54
Width: 512
Flags: W
LayerCount: 2
Fore
SplineSet
258 608 m 5,0,-1
 482 96 l 5,1,-1
 34 96 l 5,2,-1
 258 608 l 5,0,-1
EndSplineSet
Validated: 1
EndChar

StartChar: triagdn
Encoding: 9660 9660 55
Width: 512
Flags: W
LayerCount: 2
Fore
SplineSet
258 96 m 5,0,-1
 34 608 l 5,1,-1
 482 608 l 5,2,-1
 258 96 l 5,0,-1
EndSplineSet
Validated: 1
EndChar

StartChar: uni25BD
Encoding: 9661 9661 56
Width: 512
Flags: W
LayerCount: 2
Fore
SplineSet
432 576 m 29,0,-1
 82 576 l 25,1,-1
 256 160 l 25,2,-1
 432 576 l 29,0,-1
258 96 m 1,3,-1
 34 608 l 1,4,-1
 482 608 l 1,5,-1
 258 96 l 1,3,-1
EndSplineSet
Validated: 1
EndChar

StartChar: uni25B3
Encoding: 9651 9651 57
Width: 512
Flags: W
LayerCount: 2
Fore
SplineSet
82 126 m 29,0,-1
 434 126 l 25,1,-1
 258 544 l 25,2,-1
 82 126 l 29,0,-1
258 608 m 1,3,-1
 482 96 l 1,4,-1
 34 96 l 1,5,-1
 258 608 l 1,3,-1
EndSplineSet
Validated: 1
EndChar

StartChar: ellipsis
Encoding: 8230 8230 58
Width: 320
Flags: W
LayerCount: 2
Fore
SplineSet
223 0 m 1,0,-1
 223 64 l 1,1,-1
 287 64 l 1,2,-1
 287 0 l 1,3,-1
 223 0 l 1,0,-1
129 0 m 1,4,-1
 129 64 l 1,5,-1
 193 64 l 1,6,-1
 193 0 l 1,7,-1
 129 0 l 1,4,-1
32 0 m 1,8,-1
 32 64 l 1,9,-1
 96 64 l 1,10,-1
 96 0 l 1,11,-1
 32 0 l 1,8,-1
EndSplineSet
Validated: 1
EndChar

StartChar: c
Encoding: 99 99 59
Width: 394
Flags: W
LayerCount: 2
Fore
SplineSet
0 345 m 1,0,-1
 0 612 l 1,1,-1
 67 672 l 1,2,-1
 67 570 l 1,3,-1
 321 570 l 1,4,5
 373 557 373 557 393 505 c 1,6,-1
 393 345 l 1,7,-1
 329 345 l 1,8,-1
 329 517 l 1,9,-1
 63 517 l 1,10,-1
 63 416 l 1,11,-1
 239 416 l 1,12,-1
 239 345 l 1,13,-1
 0 345 l 1,0,-1
EndSplineSet
Validated: 1
EndChar

StartChar: A
Encoding: 65 65 66
Width: 394
Flags: W
LayerCount: 2
Fore
SplineSet
131 488 m 1,0,-1
 28 488 l 1,1,-1
 28 534 l 1,2,-1
 343 534 l 1,3,-1
 343 488 l 1,4,-1
 196 488 l 1,5,-1
 150 404 l 1,6,-1
 394 404 l 1,7,-1
 394 334 l 1,8,-1
 0 334 l 1,9,-1
 0 404 l 1,10,-1
 78 404 l 1,11,-1
 131 488 l 1,0,-1
EndSplineSet
Validated: 1
EndChar

StartChar: B
Encoding: 66 66 67
Width: 394
Flags: W
LayerCount: 2
Fore
SplineSet
394 404 m 1,0,-1
 394 334 l 1,1,-1
 0 334 l 1,2,-1
 0 404 l 1,3,-1
 174 404 l 1,4,-1
 66 522 l 1,5,-1
 66 563 l 1,6,-1
 107 563 l 1,7,-1
 231 441 l 1,8,-1
 309 528 l 1,9,-1
 347 528 l 1,10,-1
 347 492 l 1,11,-1
 258 404 l 1,12,-1
 394 404 l 1,0,-1
EndSplineSet
Validated: 1
EndChar

StartChar: D
Encoding: 68 68 68
Width: 394
Flags: W
LayerCount: 2
Fore
SplineSet
394 334 m 1,0,-1
 0 334 l 1,1,-1
 0 404 l 1,2,-1
 235 405 l 1,3,-1
 179 506 l 1,4,-1
 260 506 l 1,5,-1
 324 404 l 1,6,-1
 394 404 l 1,7,-1
 394 334 l 1,0,-1
EndSplineSet
Validated: 1
EndChar

StartChar: E
Encoding: 69 69 69
Width: 394
Flags: W
LayerCount: 2
Fore
SplineSet
131 488 m 1,0,-1
 28 488 l 1,1,-1
 28 534 l 1,2,-1
 343 534 l 1,3,-1
 343 488 l 1,4,-1
 196 487 l 1,5,-1
 150 403 l 1,6,-1
 394 404 l 1,7,-1
 394 334 l 1,8,-1
 0 334 l 1,9,-1
 0 404 l 1,10,-1
 78 404 l 1,11,-1
 131 488 l 1,0,-1
EndSplineSet
Validated: 1
EndChar

StartChar: I
Encoding: 73 73 70
Width: 394
Flags: W
LayerCount: 2
Fore
SplineSet
394 404 m 1,0,-1
 394 334 l 1,1,-1
 0 334 l 1,2,-1
 0 404 l 1,3,-1
 174 404 l 1,4,-1
 66 522 l 1,5,-1
 66 563 l 1,6,-1
 107 563 l 1,7,-1
 231 441 l 1,8,-1
 309 528 l 1,9,-1
 347 528 l 1,10,-1
 347 492 l 1,11,-1
 258 404 l 1,12,-1
 394 404 l 1,0,-1
EndSplineSet
Validated: 1
EndChar

StartChar: five
Encoding: 53 53 85
Width: 394
Flags: W
LayerCount: 2
Fore
SplineSet
0 170 m 1,0,-1
 0 240 l 1,1,-1
 394 240 l 1,2,-1
 394 170 l 1,3,-1
 0 170 l 1,0,-1
0 334 m 1,4,-1
 0 404 l 1,5,-1
 234 404 l 1,6,-1
 179 506 l 1,7,-1
 260 506 l 1,8,-1
 323 404 l 1,9,-1
 394 404 l 1,10,-1
 394 334 l 1,11,-1
 0 334 l 1,4,-1
EndSplineSet
Validated: 1
EndChar

StartChar: six
Encoding: 54 54 86
Width: 394
Flags: W
LayerCount: 2
Fore
SplineSet
0 170 m 1,0,-1
 0 240 l 1,1,-1
 394 240 l 1,2,-1
 394 170 l 1,3,-1
 0 170 l 1,0,-1
131 488 m 1,4,-1
 28 488 l 1,5,-1
 28 534 l 1,6,-1
 343 534 l 1,7,-1
 343 488 l 1,8,-1
 196 487 l 1,9,-1
 150 403 l 1,10,-1
 394 404 l 1,11,-1
 394 334 l 1,12,-1
 0 334 l 1,13,-1
 0 404 l 1,14,-1
 78 404 l 1,15,-1
 131 488 l 1,4,-1
EndSplineSet
Validated: 1
EndChar

StartChar: seven
Encoding: 55 55 87
Width: 394
Flags: W
LayerCount: 2
Fore
SplineSet
0 170 m 1,0,-1
 0 240 l 1,1,-1
 394 240 l 1,2,-1
 394 170 l 1,3,-1
 0 170 l 1,0,-1
394 404 m 1,4,-1
 394 334 l 1,5,-1
 0 334 l 1,6,-1
 0 404 l 1,7,-1
 174 404 l 1,8,-1
 66 522 l 1,9,-1
 66 563 l 1,10,-1
 107 563 l 1,11,-1
 231 441 l 1,12,-1
 309 528 l 1,13,-1
 347 528 l 1,14,-1
 347 492 l 1,15,-1
 258 404 l 1,16,-1
 394 404 l 1,4,-1
EndSplineSet
Validated: 1
EndChar

StartChar: eight
Encoding: 56 56 88
Width: 394
Flags: W
LayerCount: 2
Fore
SplineSet
0 170 m 1,0,-1
 0 240 l 1,1,-1
 394 240 l 1,2,-1
 394 170 l 1,3,-1
 0 170 l 1,0,-1
0 332 m 1,4,-1
 0 599 l 1,5,-1
 67 660 l 1,6,-1
 67 558 l 1,7,-1
 321 558 l 1,8,9
 373 545 373 545 393 493 c 1,10,-1
 393 332 l 1,11,-1
 329 332 l 1,12,-1
 329 504 l 1,13,-1
 63 504 l 1,14,-1
 63 404 l 1,15,-1
 239 404 l 1,16,-1
 239 332 l 1,17,-1
 0 332 l 1,4,-1
EndSplineSet
EndChar

StartChar: nine
Encoding: 57 57 89
Width: 394
Flags: W
LayerCount: 2
Fore
SplineSet
394 334 m 1,0,-1
 0 334 l 1,1,-1
 0 404 l 1,2,-1
 234 405 l 1,3,-1
 179 506 l 1,4,-1
 260 506 l 1,5,-1
 323 404 l 1,6,-1
 394 404 l 1,7,-1
 394 334 l 1,0,-1
EndSplineSet
Validated: 1
EndChar

StartChar: uniE250
Encoding: 57936 57936 90
Width: 0
VWidth: 0
Flags: W
LayerCount: 2
Back
SplineSet
-425.705078125 726.056640625 m 5,0,-1
 -342.913085938 669.971679688 l 5,1,-1
 -356.038085938 650.59765625 l 5,2,3
 -216 636 -216 636 -136.064453125 567.221679688 c 4,4,5
 -56 498 -56 498 -55.3115234375 380.434570312 c 4,6,7
 -55 285 -55 285 -89.0439453125 215.061523438 c 4,8,9
 -124 145 -124 145 -192.998046875 108.47265625 c 5,10,11
 -141 87 -141 87 -122.381835938 49.97265625 c 5,12,-1
 -209 0 l 5,13,14
 -248 65 -248 65 -357.083007812 72.0908203125 c 5,15,-1
 -355.50390625 172 l 5,16,17
 -248 175 -248 175 -200.995117188 222.810546875 c 4,18,19
 -154 271 -154 271 -155.307617188 379.6171875 c 4,20,21
 -156 467 -156 467 -222.8203125 511.041015625 c 4,22,23
 -290.020507812 555.013671875 -290.020507812 555.013671875 -447.309570312 555.013671875 c 6,24,-1
 -541.572265625 555.013671875 l 5,25,-1
 -425.705078125 726.056640625 l 5,0,-1
EndSplineSet
Fore
Validated: 1
EndChar

StartChar: uniE251
Encoding: 57937 57937 91
Width: 0
VWidth: 0
Flags: W
LayerCount: 2
Back
SplineSet
-632 777 m 1,0,-1
 -568 845 l 1,1,-1
 -143 845 l 1,2,-1
 -143 777 l 1,3,-1
 -632 777 l 1,0,-1
-469.705078125 726.056640625 m 1,0,-1
 -386.913085938 669.971679688 l 1,1,-1
 -400.038085938 650.59765625 l 1,2,3
 -260 636 -260 636 -180.064453125 567.221679688 c 0,4,5
 -100 498 -100 498 -99.3115234375 380.434570312 c 0,6,7
 -99 285 -99 285 -133.043945312 215.061523438 c 0,8,9
 -168 145 -168 145 -236.998046875 108.47265625 c 1,10,11
 -185 87 -185 87 -166.381835938 49.97265625 c 1,12,-1
 -253 0 l 1,13,14
 -292 65 -292 65 -401.083007812 72.0908203125 c 1,15,-1
 -399.50390625 172 l 1,16,17
 -292 175 -292 175 -244.995117188 222.810546875 c 0,18,19
 -198 271 -198 271 -199.307617188 379.6171875 c 0,20,21
 -200 467 -200 467 -266.8203125 511.041015625 c 0,22,23
 -334.020507812 555.013671875 -334.020507812 555.013671875 -491.309570312 555.013671875 c 2,24,-1
 -585.572265625 555.013671875 l 1,25,-1
 -469.705078125 726.056640625 l 1,0,-1
EndSplineSet
Fore
Validated: 1
EndChar

StartChar: asterisk
Encoding: 42 42 137
Width: 384
Flags: W
LayerCount: 2
Fore
SplineSet
64 158 m 5,0,-1
 64 222 l 5,1,-1
 322 222 l 5,2,-1
 322 158 l 5,3,-1
 64 158 l 5,0,-1
222 480 m 1,4,-1
 222 540 l 1,5,-1
 320 540 l 1,6,-1
 320 480 l 1,7,-1
 222 480 l 1,4,-1
258 350 m 1,8,-1
 258 414 l 1,9,-1
 384 414 l 1,10,-1
 384 350 l 1,11,-1
 258 350 l 1,8,-1
68 480 m 1,12,-1
 68 540 l 1,13,-1
 160 540 l 1,14,-1
 160 480 l 1,15,-1
 68 480 l 1,12,-1
0 350 m 1,16,-1
 0 414 l 1,17,-1
 136 414 l 1,18,-1
 136 350 l 1,19,-1
 0 350 l 1,16,-1
EndSplineSet
Validated: 1
EndChar

StartChar: plus
Encoding: 43 43 138
Width: 384
Flags: W
LayerCount: 2
Fore
SplineSet
3 353 m 1,0,-1
 3 416 l 1,1,-1
 95 416 l 1,2,-1
 95 604 l 1,3,-1
 258 604 l 1,4,-1
 255 542 l 1,5,-1
 160 542 l 1,6,-1
 160 353 l 1,7,-1
 3 353 l 1,0,-1
126 163 m 1,8,-1
 126 226 l 1,9,-1
 218 226 l 1,10,-1
 218 414 l 1,11,-1
 381 414 l 1,12,-1
 378 352 l 1,13,-1
 283 352 l 1,14,-1
 283 163 l 1,15,-1
 126 163 l 1,8,-1
EndSplineSet
Validated: 1
EndChar

StartChar: slash
Encoding: 47 47 139
Width: 384
Flags: W
LayerCount: 2
Fore
SplineSet
64 158 m 1,0,-1
 64 222 l 1,1,-1
 322 222 l 1,2,-1
 322 158 l 1,3,-1
 64 158 l 1,0,-1
384 350 m 1,4,-1
 225 350 l 1,5,-1
 225 574 l 1,6,-1
 290 574 l 1,7,-1
 290 414 l 1,8,-1
 384 414 l 1,9,-1
 384 350 l 1,4,-1
0 350 m 1,10,-1
 0 414 l 1,11,-1
 98 414 l 1,12,-1
 98 574 l 1,13,-1
 160 574 l 1,14,-1
 160 350 l 1,15,-1
 0 350 l 1,10,-1
EndSplineSet
Validated: 1
EndChar

StartChar: hyphen
Encoding: 45 45 140
Width: 384
Flags: W
LayerCount: 2
Fore
SplineSet
96 570 m 1,0,-1
 288 570 l 1,1,-1
 288 418 l 1,2,-1
 383 418 l 1,3,-1
 384 354 l 1,4,-1
 224 354 l 1,5,-1
 224 510 l 1,6,-1
 96 510 l 1,7,-1
 96 570 l 1,0,-1
0 418 m 1,8,-1
 162 418 l 1,9,-1
 162 354 l 1,10,-1
 0 354 l 1,11,-1
 0 418 l 1,8,-1
EndSplineSet
Validated: 1
EndChar

StartChar: equal
Encoding: 61 61 141
Width: 384
Flags: W
LayerCount: 2
Fore
SplineSet
64 158 m 5,0,-1
 64 222 l 5,1,-1
 322 222 l 5,2,-1
 322 158 l 5,3,-1
 64 158 l 5,0,-1
0 350 m 1,4,-1
 0 414 l 1,5,-1
 64 414 l 1,6,-1
 64 514 l 1,7,-1
 323 514 l 1,8,-1
 323 414 l 1,9,-1
 387 414 l 1,10,-1
 387 350 l 1,11,-1
 256 350 l 1,12,-1
 256 446 l 1,13,-1
 130 446 l 1,14,-1
 130 350 l 1,15,-1
 0 350 l 1,4,-1
EndSplineSet
Validated: 1
EndChar

StartChar: uniE160
Encoding: 57696 57696 144
Width: 364
Flags: W
LayerCount: 2
Fore
SplineSet
271 0 m 1,0,-1
 271 96 l 1,1,-1
 335 96 l 1,2,-1
 335 0 l 1,3,-1
 271 0 l 1,0,-1
271 608 m 1,4,-1
 271 704 l 1,5,-1
 335 704 l 1,6,-1
 335 608 l 1,7,-1
 271 608 l 1,4,-1
160 0 m 1,8,-1
 160 96 l 1,9,-1
 224 96 l 1,10,-1
 224 0 l 1,11,-1
 160 0 l 1,8,-1
32 0 m 1,12,-1
 32 96 l 1,13,-1
 96 96 l 1,14,-1
 96 0 l 1,15,-1
 32 0 l 1,12,-1
160 608 m 1,16,-1
 160 704 l 1,17,-1
 224 704 l 1,18,-1
 224 608 l 1,19,-1
 160 608 l 1,16,-1
32 608 m 1,20,-1
 32 704 l 1,21,-1
 96 704 l 1,22,-1
 96 608 l 1,23,-1
 32 608 l 1,20,-1
EndSplineSet
Validated: 2049
Ligature2: "'liga' Standard Ligatures in Latin lookup 0-1" uniE138 uniE138
Ligature2: "'liga' Standard Ligatures in Latin lookup 0-1" r r
EndChar

StartChar: uni732B
Encoding: 29483 29483 151
Width: 664
VWidth: 0
Flags: W
LayerCount: 2
Fore
SplineSet
612 620 m 0,0,1
 620 606 620 606 620 586 c 0,2,3
 620 578 620 578 619 570 c 0,4,5
 615 540 615 540 591 528 c 0,6,7
 579 522 579 522 567 522 c 0,8,9
 553 523 553 523 541 529 c 0,10,11
 515 542 515 542 497 575 c 0,12,13
 488 592 488 592 488 609 c 0,14,15
 488 617 488 617 490 625 c 0,16,17
 496 649 496 649 520 661 c 0,18,19
 530.27151188 666.602642844 530.27151188 666.602642844 542.019858071 666.602642844 c 0,20,21
 555.766368945 666.602642844 555.766368945 666.602642844 570.248046875 659.546875 c 0,22,23
 596 647 596 647 612 620 c 0,0,1
430.627396103 612.611933001 m 0,24,25
 430.627396103 591.941646098 430.627396103 591.941646098 415 568.506835938 c 0,26,27
 398 543 398 543 371.81640625 542.123046875 c 0,28,29
 371.672817115 542.122411703 371.672817115 542.122411703 371.529517398 542.122411703 c 0,30,31
 343.912477371 542.122411703 343.912477371 542.122411703 327.044921875 565.713867188 c 0,32,33
 308 592 308 592 307.1171875 626.110351562 c 0,34,35
 307.046832854 627.992645838 307.046832854 627.992645838 307.046832854 629.827098489 c 0,36,37
 307.046832854 657.122599396 307.046832854 657.122599396 322.623046875 673.826171875 c 0,38,39
 340.635530157 693.599892762 340.635530157 693.599892762 364.507136942 693.599892762 c 0,40,41
 364.990162 693.599892762 364.990162 693.599892762 365.475585938 693.591796875 c 128,-1,42
 365.935904618 693.59862367 365.935904618 693.59862367 366.393349346 693.59862367 c 0,43,44
 393.288472905 693.59862367 393.288472905 693.59862367 410.249023438 670 c 0,45,46
 430.627396103 642.830251537 430.627396103 642.830251537 430.627396103 612.611933001 c 0,24,25
248.833007812 578.399414062 m 0,47,48
 263.906566748 559.886585804 263.906566748 559.886585804 263.906566748 527.297742215 c 0,49,50
 263.906566748 498.221113261 263.906566748 498.221113261 243.942382812 484 c 0,51,52
 230.687853512 473.873527253 230.687853512 473.873527253 214.119639713 473.873527253 c 0,53,54
 204.50979256 473.873527253 204.50979256 473.873527253 193.78515625 477.280273438 c 0,55,56
 165 486 165 486 142.543945312 514.954101562 c 0,57,58
 127.211342786 535.095158452 127.211342786 535.095158452 127.211342786 556.595980588 c 0,59,60
 127.211342786 559.696934118 127.211342786 559.696934118 127.530273438 562.826171875 c 0,61,62
 131 590 131 590 151 603.768554688 c 0,63,64
 164.871325063 614.002720787 164.871325063 614.002720787 181.191225127 614.002720787 c 0,65,66
 190.754778862 614.002720787 190.754778862 614.002720787 201.159179688 610.48828125 c 0,67,68
 231 601 231 601 248.833007812 578.399414062 c 0,47,48
151.0859375 394.291015625 m 0,69,70
 157.172060341 357.153950658 157.172060341 357.153950658 157.172060341 345.574789856 c 0,71,72
 157.172060341 342.097040918 157.172060341 342.097040918 156.623046875 340.924804688 c 0,73,74
 146 312 146 312 120 306 c 0,75,76
 113.667430142 304.592762254 113.667430142 304.592762254 107.623710389 304.592762254 c 0,77,78
 87.8989922126 304.592762254 87.8989922126 304.592762254 71.2509765625 319.58203125 c 0,79,80
 33 354 33 354 30.787109375 364.216796875 c 0,81,82
 29.3581476069 372.808640848 29.3581476069 372.808640848 29.3581476069 381.382559712 c 0,83,84
 29.3581476069 401.531793764 29.3581476069 401.531793764 37.25 421.58203125 c 0,85,86
 49 450 49 450 73.873046875 456.506835938 c 0,87,88
 80.0139390062 458.093730294 80.0139390062 458.093730294 86.0650047275 458.093730294 c 0,89,90
 104.773345536 458.093730294 104.773345536 458.093730294 122.623046875 442.924804688 c 0,91,92
 147 423 147 423 151.0859375 394.291015625 c 0,69,70
157.524414062 178.052734375 m 0,93,94
 156.093374958 189.163279137 156.093374958 189.163279137 156.093374958 200.379776172 c 0,95,96
 156.093374958 263.815719984 156.093374958 263.815719984 201.866210938 330.640625 c 0,97,98
 255 409 255 409 339.325195312 447.345703125 c 0,99,100
 383.053375811 467.54631282 383.053375811 467.54631282 427.586476234 467.54631282 c 0,101,102
 468.268411918 467.54631282 468.268411918 467.54631282 509.622070312 450.688476562 c 0,103,104
 596 415 596 415 621.516601562 333.369140625 c 0,105,106
 630.829513585 303.085879037 630.829513585 303.085879037 630.829513585 274.117591253 c 0,107,108
 630.829513585 217.597366607 630.829513585 217.597366607 595.376953125 166.083007812 c 0,109,110
 535 79 535 79 443.381835938 49.9736328125 c 0,111,112
 401.795111557 36.8808508111 401.795111557 36.8808508111 361.70606617 36.8808508111 c 0,113,114
 306.956339211 36.8808508111 306.956339211 36.8808508111 255 61.30078125 c 0,115,116
 167 103 167 103 157.524414062 178.052734375 c 0,93,94
EndSplineSet
Validated: 1025
EndChar

StartChar: uniE1EA
Encoding: 57834 57834 152
Width: 644
VWidth: 0
Flags: W
LayerCount: 2
Fore
SplineSet
137 356 m 1,0,-1
 342 148 l 1,1,-1
 544 356 l 1,2,-1
 342 565 l 1,3,-1
 137 356 l 1,0,-1
58 356 m 1,4,-1
 342 641 l 1,5,-1
 626 356 l 1,6,-1
 342 72 l 1,7,-1
 58 356 l 1,4,-1
EndSplineSet
Validated: 1
EndChar

StartChar: uniE1E9
Encoding: 57833 57833 162
Width: 644
VWidth: 0
Flags: W
LayerCount: 2
Fore
SplineSet
57.7431640625 356.256835938 m 1,0,-1
 342 640.513671875 l 1,1,-1
 626.256835938 356.256835938 l 1,2,-1
 342 72 l 1,3,-1
 57.7431640625 356.256835938 l 1,0,-1
EndSplineSet
Validated: 1
EndChar

StartChar: parenleft
Encoding: 40 40 163
Width: 224
Flags: W
LayerCount: 2
Fore
SplineSet
32 736 m 1,0,-1
 224 736 l 1,1,-1
 224 704 l 1,2,-1
 96 704 l 1,3,-1
 96 0 l 1,4,-1
 224 0 l 1,5,-1
 224 -33 l 1,6,-1
 32 -33 l 1,7,-1
 32 736 l 1,0,-1
EndSplineSet
Validated: 1
EndChar

StartChar: parenright
Encoding: 41 41 164
Width: 224
Flags: W
LayerCount: 2
Fore
SplineSet
224 736 m 1,0,-1
 224 -33 l 1,1,-1
 32 -33 l 1,2,-1
 32 0 l 1,3,-1
 160 0 l 1,4,-1
 160 704 l 1,5,-1
 32 704 l 1,6,-1
 32 736 l 1,7,-1
 224 736 l 1,0,-1
EndSplineSet
Validated: 1
EndChar

StartChar: colon
Encoding: 58 58 165
Width: 224
Flags: W
LayerCount: 2
Fore
SplineSet
22 321 m 128,-1,1
 22 419 22 419 56 488 c 128,-1,2
 90 557 90 557 138 557 c 9,3,-1
 213 557 l 1,4,-1
 152 488 l 0,5,6
 115 418 115 418 115 321 c 0,7,8
 115 222 115 222 149 160 c 0,9,10
 151 157 151 157 213 85 c 1,11,-1
 138 85 l 17,12,13
 90 85 90 85 56 154 c 128,-1,0
 22 223 22 223 22 321 c 128,-1,1
EndSplineSet
Validated: 1
EndChar

StartChar: grave
Encoding: 96 96 166
Width: 228
VWidth: 0
Flags: W
LayerCount: 2
Fore
SplineSet
134 734 m 24,0,1
 242 734 l 0,2,3
 126 628 126 628 118 512 c 24,4,-1
 30 512 l 0,5,6
 34 629 34 629 134 734 c 24,0,1
EndSplineSet
Validated: 1
EndChar

StartChar: uni0080
Encoding: 128 128 182
Width: 192
Flags: W
LayerCount: 2
Fore
SplineSet
30 262 m 5,0,-1
 30 390 l 5,1,-1
 158 390 l 5,2,-1
 158 262 l 5,3,-1
 30 262 l 5,0,-1
EndSplineSet
Validated: 1
EndChar
